<svg xmlns="http://www.w3.org/2000/svg" xmlns:xlink="http://www.w3.org/1999/xlink" width="500" zoomAndPan="magnify" viewBox="0 0 375 374.999991" height="500" preserveAspectRatio="xMidYMid meet" version="1.0"><defs><g/><clipPath id="a4c5f0a188"><path d="M 25.300781 139.683594 L 121 139.683594 L 121 235.683594 L 25.300781 235.683594 Z M 25.300781 139.683594 " clip-rule="nonzero"/></clipPath></defs><g clip-path="url(#a4c5f0a188)"><path fill="#ffffff" d="M 73.113281 139.683594 C 46.761719 139.683594 25.300781 161.140625 25.300781 187.496094 C 25.300781 213.851562 46.761719 235.308594 73.113281 235.308594 C 99.46875 235.308594 120.925781 213.851562 120.925781 187.496094 C 120.925781 161.140625 99.46875 139.683594 73.113281 139.683594 Z M 73.113281 148.378906 C 94.773438 148.378906 112.234375 165.839844 112.234375 187.496094 C 112.234375 209.152344 94.773438 226.617188 73.113281 226.617188 C 51.457031 226.617188 33.996094 209.152344 33.996094 187.496094 C 33.996094 165.839844 51.457031 148.378906 73.113281 148.378906 Z M 68.769531 161.417969 L 68.769531 167.574219 C 63.957031 169.5 60.074219 173.34375 60.074219 178.804688 C 60.074219 185.953125 65.964844 191.84375 73.113281 191.84375 C 75.570312 191.84375 77.460938 193.734375 77.460938 196.191406 C 77.460938 198.644531 75.570312 200.535156 73.113281 200.535156 C 70.660156 200.535156 68.769531 198.644531 68.769531 196.191406 L 60.074219 196.191406 C 60.074219 201.652344 63.957031 205.496094 68.769531 207.421875 L 68.769531 213.578125 L 77.460938 213.578125 L 77.460938 207.421875 C 82.273438 205.496094 86.15625 201.652344 86.15625 196.191406 C 86.15625 189.039062 80.265625 183.152344 73.113281 183.152344 C 70.660156 183.152344 68.769531 181.261719 68.769531 178.804688 C 68.769531 176.347656 70.660156 174.457031 73.113281 174.457031 C 75.570312 174.457031 77.460938 176.347656 77.460938 178.804688 L 86.15625 178.804688 C 86.15625 173.34375 82.273438 169.5 77.460938 167.574219 L 77.460938 161.417969 Z M 68.769531 161.417969 " fill-opacity="1" fill-rule="nonzero"/></g><g fill="#ffffff" fill-opacity="1"><g transform="translate(130.084537, 195.20954)"><g><path d="M 13.46875 0 L 5.0625 0 L 5.0625 -40.28125 L 28.15625 -40.28125 L 28.15625 -33.28125 L 13.46875 -33.28125 L 13.46875 -22.890625 L 27.140625 -22.890625 L 27.140625 -15.921875 L 13.46875 -15.921875 Z M 13.46875 0 "/></g></g></g><g fill="#ffffff" fill-opacity="1"><g transform="translate(161.049389, 195.20954)"><g><path d="M 4.046875 -38.765625 C 4.046875 -41.503906 5.570312 -42.875 8.625 -42.875 C 11.675781 -42.875 13.203125 -41.503906 13.203125 -38.765625 C 13.203125 -37.460938 12.816406 -36.445312 12.046875 -35.71875 C 11.285156 -34.988281 10.144531 -34.625 8.625 -34.625 C 5.570312 -34.625 4.046875 -36.003906 4.046875 -38.765625 Z M 12.8125 0 L 4.40625 0 L 4.40625 -30.796875 L 12.8125 -30.796875 Z M 12.8125 0 "/></g></g></g><g fill="#ffffff" fill-opacity="1"><g transform="translate(178.267397, 195.20954)"><g><path d="M 32.84375 0 L 24.4375 0 L 24.4375 -17.984375 C 24.4375 -20.210938 24.039062 -21.878906 23.25 -22.984375 C 22.457031 -24.097656 21.203125 -24.65625 19.484375 -24.65625 C 17.128906 -24.65625 15.425781 -23.867188 14.375 -22.296875 C 13.332031 -20.734375 12.8125 -18.128906 12.8125 -14.484375 L 12.8125 0 L 4.40625 0 L 4.40625 -30.796875 L 10.828125 -30.796875 L 11.953125 -26.859375 L 12.421875 -26.859375 C 13.359375 -28.347656 14.648438 -29.472656 16.296875 -30.234375 C 17.941406 -30.992188 19.8125 -31.375 21.90625 -31.375 C 25.488281 -31.375 28.207031 -30.40625 30.0625 -28.46875 C 31.914062 -26.53125 32.84375 -23.734375 32.84375 -20.078125 Z M 32.84375 0 "/></g></g></g><g fill="#ffffff" fill-opacity="1"><g transform="translate(215.348083, 195.20954)"><g><path d="M 13.609375 -22.390625 L 16.359375 -22.390625 C 19.066406 -22.390625 21.0625 -22.835938 22.34375 -23.734375 C 23.625 -24.640625 24.265625 -26.054688 24.265625 -27.984375 C 24.265625 -29.898438 23.609375 -31.257812 22.296875 -32.0625 C 20.984375 -32.875 18.953125 -33.28125 16.203125 -33.28125 L 13.609375 -33.28125 Z M 13.609375 -15.453125 L 13.609375 0 L 5.0625 0 L 5.0625 -40.28125 L 16.8125 -40.28125 C 22.28125 -40.28125 26.328125 -39.28125 28.953125 -37.28125 C 31.578125 -35.289062 32.890625 -32.269531 32.890625 -28.21875 C 32.890625 -25.84375 32.238281 -23.734375 30.9375 -21.890625 C 29.632812 -20.046875 27.789062 -18.597656 25.40625 -17.546875 C 31.46875 -8.492188 35.414062 -2.644531 37.25 0 L 27.765625 0 L 18.15625 -15.453125 Z M 13.609375 -15.453125 "/></g></g></g><g fill="#ffffff" fill-opacity="1"><g transform="translate(252.594062, 195.20954)"><g><path d="M 17.15625 -25.40625 C 15.375 -25.40625 13.976562 -24.835938 12.96875 -23.703125 C 11.957031 -22.578125 11.378906 -20.976562 11.234375 -18.90625 L 23.03125 -18.90625 C 22.988281 -20.976562 22.441406 -22.578125 21.390625 -23.703125 C 20.347656 -24.835938 18.9375 -25.40625 17.15625 -25.40625 Z M 18.34375 0.546875 C 13.382812 0.546875 9.507812 -0.816406 6.71875 -3.546875 C 3.925781 -6.285156 2.53125 -10.164062 2.53125 -15.1875 C 2.53125 -20.34375 3.820312 -24.328125 6.40625 -27.140625 C 8.988281 -29.960938 12.554688 -31.375 17.109375 -31.375 C 21.460938 -31.375 24.847656 -30.132812 27.265625 -27.65625 C 29.691406 -25.175781 30.90625 -21.753906 30.90625 -17.390625 L 30.90625 -13.3125 L 11.046875 -13.3125 C 11.140625 -10.914062 11.847656 -9.046875 13.171875 -7.703125 C 14.492188 -6.367188 16.347656 -5.703125 18.734375 -5.703125 C 20.585938 -5.703125 22.335938 -5.894531 23.984375 -6.28125 C 25.640625 -6.664062 27.367188 -7.28125 29.171875 -8.125 L 29.171875 -1.625 C 27.703125 -0.894531 26.128906 -0.351562 24.453125 0 C 22.785156 0.363281 20.75 0.546875 18.34375 0.546875 Z M 18.34375 0.546875 "/></g></g></g><g fill="#ffffff" fill-opacity="1"><g transform="translate(285.92811, 195.20954)"><g><path d="M 25.890625 -9.140625 C 25.890625 -5.984375 24.789062 -3.578125 22.59375 -1.921875 C 20.40625 -0.273438 17.125 0.546875 12.75 0.546875 C 10.507812 0.546875 8.597656 0.394531 7.015625 0.09375 C 5.441406 -0.207031 3.96875 -0.648438 2.59375 -1.234375 L 2.59375 -8.1875 C 4.15625 -7.445312 5.910156 -6.828125 7.859375 -6.328125 C 9.816406 -5.835938 11.539062 -5.59375 13.03125 -5.59375 C 16.082031 -5.59375 17.609375 -6.472656 17.609375 -8.234375 C 17.609375 -8.898438 17.40625 -9.4375 17 -9.84375 C 16.59375 -10.257812 15.894531 -10.726562 14.90625 -11.25 C 13.914062 -11.78125 12.59375 -12.394531 10.9375 -13.09375 C 8.570312 -14.082031 6.832031 -15 5.71875 -15.84375 C 4.601562 -16.6875 3.789062 -17.65625 3.28125 -18.75 C 2.78125 -19.84375 2.53125 -21.1875 2.53125 -22.78125 C 2.53125 -25.519531 3.59375 -27.632812 5.71875 -29.125 C 7.84375 -30.625 10.847656 -31.375 14.734375 -31.375 C 18.441406 -31.375 22.050781 -30.566406 25.5625 -28.953125 L 23.03125 -22.890625 C 21.488281 -23.554688 20.046875 -24.097656 18.703125 -24.515625 C 17.359375 -24.941406 15.988281 -25.15625 14.59375 -25.15625 C 12.113281 -25.15625 10.875 -24.484375 10.875 -23.140625 C 10.875 -22.390625 11.273438 -21.738281 12.078125 -21.1875 C 12.878906 -20.632812 14.628906 -19.816406 17.328125 -18.734375 C 19.734375 -17.765625 21.492188 -16.851562 22.609375 -16 C 23.734375 -15.15625 24.5625 -14.179688 25.09375 -13.078125 C 25.625 -11.984375 25.890625 -10.671875 25.890625 -9.140625 Z M 25.890625 -9.140625 "/></g></g></g><g fill="#ffffff" fill-opacity="1"><g transform="translate(313.972789, 195.20954)"><g><path d="M 21.328125 0.546875 C 17.703125 0.546875 14.863281 -0.765625 12.8125 -3.390625 L 12.375 -3.390625 C 12.664062 -0.816406 12.8125 0.671875 12.8125 1.078125 L 12.8125 13.546875 L 4.40625 13.546875 L 4.40625 -30.796875 L 11.234375 -30.796875 L 12.421875 -26.8125 L 12.8125 -26.8125 C 14.78125 -29.851562 17.691406 -31.375 21.546875 -31.375 C 25.179688 -31.375 28.023438 -29.96875 30.078125 -27.15625 C 32.140625 -24.351562 33.171875 -20.453125 33.171875 -15.453125 C 33.171875 -12.171875 32.6875 -9.316406 31.71875 -6.890625 C 30.757812 -4.460938 29.390625 -2.613281 27.609375 -1.34375 C 25.828125 -0.0820312 23.734375 0.546875 21.328125 0.546875 Z M 18.84375 -24.65625 C 16.769531 -24.65625 15.253906 -24.015625 14.296875 -22.734375 C 13.335938 -21.460938 12.84375 -19.359375 12.8125 -16.421875 L 12.8125 -15.515625 C 12.8125 -12.203125 13.300781 -9.828125 14.28125 -8.390625 C 15.269531 -6.960938 16.828125 -6.25 18.953125 -6.25 C 22.722656 -6.25 24.609375 -9.351562 24.609375 -15.5625 C 24.609375 -18.59375 24.140625 -20.863281 23.203125 -22.375 C 22.273438 -23.894531 20.820312 -24.65625 18.84375 -24.65625 Z M 18.84375 -24.65625 "/></g></g></g><g fill="#ffffff" fill-opacity="1"><g transform="translate(132.506247, 230.002588)"><g><path d="M 16.96875 -8.234375 C 16.96875 -5.515625 16.289062 -3.425781 14.9375 -1.96875 C 13.59375 -0.507812 11.664062 0.21875 9.15625 0.21875 C 6.632812 0.21875 4.703125 -0.507812 3.359375 -1.96875 C 2.015625 -3.425781 1.34375 -5.519531 1.34375 -8.25 C 1.34375 -10.988281 2.015625 -13.078125 3.359375 -14.515625 C 4.710938 -15.953125 6.648438 -16.671875 9.171875 -16.671875 C 11.691406 -16.671875 13.617188 -15.941406 14.953125 -14.484375 C 16.296875 -13.035156 16.96875 -10.953125 16.96875 -8.234375 Z M 4.984375 -8.234375 C 4.984375 -6.398438 5.332031 -5.019531 6.03125 -4.09375 C 6.726562 -3.164062 7.769531 -2.703125 9.15625 -2.703125 C 11.925781 -2.703125 13.3125 -4.546875 13.3125 -8.234375 C 13.3125 -11.929688 11.929688 -13.78125 9.171875 -13.78125 C 7.785156 -13.78125 6.738281 -13.3125 6.03125 -12.375 C 5.332031 -11.445312 4.984375 -10.066406 4.984375 -8.234375 Z M 4.984375 -8.234375 "/></g></g></g><g fill="#ffffff" fill-opacity="1"><g transform="translate(150.805691, 230.002588)"><g><path d="M 12.125 0 L 11.15625 -4.390625 L 9.84375 -9.9375 L 9.765625 -9.9375 L 7.484375 0 L 3.796875 0 L 0.21875 -12.5625 L 3.640625 -12.5625 L 5.09375 -7 C 5.320312 -6 5.554688 -4.625 5.796875 -2.875 L 5.859375 -2.875 C 5.890625 -3.445312 6.019531 -4.347656 6.25 -5.578125 L 6.4375 -6.53125 L 7.984375 -12.5625 L 11.765625 -12.5625 L 13.234375 -6.53125 C 13.265625 -6.375 13.3125 -6.132812 13.375 -5.8125 C 13.4375 -5.488281 13.492188 -5.144531 13.546875 -4.78125 C 13.609375 -4.414062 13.664062 -4.054688 13.71875 -3.703125 C 13.769531 -3.359375 13.796875 -3.082031 13.796875 -2.875 L 13.875 -2.875 C 13.9375 -3.414062 14.050781 -4.15625 14.21875 -5.09375 C 14.394531 -6.03125 14.519531 -6.664062 14.59375 -7 L 16.109375 -12.5625 L 19.46875 -12.5625 L 15.84375 0 Z M 12.125 0 "/></g></g></g><g fill="#ffffff" fill-opacity="1"><g transform="translate(170.486015, 230.002588)"><g><path d="M 13.390625 0 L 9.96875 0 L 9.96875 -7.328125 C 9.96875 -8.234375 9.804688 -8.910156 9.484375 -9.359375 C 9.160156 -9.816406 8.644531 -10.046875 7.9375 -10.046875 C 6.976562 -10.046875 6.285156 -9.722656 5.859375 -9.078125 C 5.429688 -8.441406 5.21875 -7.382812 5.21875 -5.90625 L 5.21875 0 L 1.796875 0 L 1.796875 -12.5625 L 4.40625 -12.5625 L 4.875 -10.953125 L 5.0625 -10.953125 C 5.445312 -11.554688 5.972656 -12.015625 6.640625 -12.328125 C 7.304688 -12.640625 8.066406 -12.796875 8.921875 -12.796875 C 10.390625 -12.796875 11.5 -12.398438 12.25 -11.609375 C 13.007812 -10.816406 13.390625 -9.675781 13.390625 -8.1875 Z M 13.390625 0 "/></g></g></g><g fill="#ffffff" fill-opacity="1"><g transform="translate(185.59709, 230.002588)"><g/></g></g><g fill="#ffffff" fill-opacity="1"><g transform="translate(191.56967, 230.002588)"><g><path d="M 0 -12.5625 L 3.75 -12.5625 L 6.125 -5.484375 C 6.320312 -4.878906 6.457031 -4.15625 6.53125 -3.3125 L 6.609375 -3.3125 C 6.691406 -4.082031 6.851562 -4.804688 7.09375 -5.484375 L 9.40625 -12.5625 L 13.078125 -12.5625 L 7.765625 1.609375 C 7.285156 2.921875 6.59375 3.898438 5.6875 4.546875 C 4.78125 5.203125 3.726562 5.53125 2.53125 5.53125 C 1.9375 5.53125 1.351562 5.460938 0.78125 5.328125 L 0.78125 2.609375 C 1.195312 2.710938 1.648438 2.765625 2.140625 2.765625 C 2.742188 2.765625 3.269531 2.578125 3.71875 2.203125 C 4.175781 1.835938 4.53125 1.28125 4.78125 0.53125 L 4.984375 -0.09375 Z M 0 -12.5625 "/></g></g></g><g fill="#ffffff" fill-opacity="1"><g transform="translate(204.648721, 230.002588)"><g><path d="M 4.53125 -6.296875 C 4.53125 -5.054688 4.734375 -4.117188 5.140625 -3.484375 C 5.546875 -2.847656 6.207031 -2.53125 7.125 -2.53125 C 8.039062 -2.53125 8.695312 -2.84375 9.09375 -3.46875 C 9.5 -4.101562 9.703125 -5.046875 9.703125 -6.296875 C 9.703125 -7.546875 9.5 -8.476562 9.09375 -9.09375 C 8.6875 -9.71875 8.023438 -10.03125 7.109375 -10.03125 C 6.191406 -10.03125 5.53125 -9.71875 5.125 -9.09375 C 4.726562 -8.476562 4.53125 -7.546875 4.53125 -6.296875 Z M 13.203125 -6.296875 C 13.203125 -4.253906 12.660156 -2.65625 11.578125 -1.5 C 10.503906 -0.351562 9.007812 0.21875 7.09375 0.21875 C 5.882812 0.21875 4.816406 -0.0390625 3.890625 -0.5625 C 2.972656 -1.09375 2.265625 -1.851562 1.765625 -2.84375 C 1.273438 -3.832031 1.03125 -4.984375 1.03125 -6.296875 C 1.03125 -8.347656 1.566406 -9.941406 2.640625 -11.078125 C 3.710938 -12.222656 5.21875 -12.796875 7.15625 -12.796875 C 8.363281 -12.796875 9.425781 -12.53125 10.34375 -12 C 11.257812 -11.476562 11.960938 -10.726562 12.453125 -9.75 C 12.953125 -8.769531 13.203125 -7.617188 13.203125 -6.296875 Z M 13.203125 -6.296875 "/></g></g></g><g fill="#ffffff" fill-opacity="1"><g transform="translate(218.884117, 230.002588)"><g><path d="M 10.6875 0 L 10.234375 -1.609375 L 10.046875 -1.609375 C 9.679688 -1.023438 9.160156 -0.570312 8.484375 -0.25 C 7.816406 0.0625 7.050781 0.21875 6.1875 0.21875 C 4.707031 0.21875 3.59375 -0.171875 2.84375 -0.953125 C 2.101562 -1.742188 1.734375 -2.882812 1.734375 -4.375 L 1.734375 -12.5625 L 5.15625 -12.5625 L 5.15625 -5.21875 C 5.15625 -4.3125 5.316406 -3.628906 5.640625 -3.171875 C 5.960938 -2.722656 6.472656 -2.5 7.171875 -2.5 C 8.128906 -2.5 8.820312 -2.816406 9.25 -3.453125 C 9.675781 -4.097656 9.890625 -5.164062 9.890625 -6.65625 L 9.890625 -12.5625 L 13.3125 -12.5625 L 13.3125 0 Z M 10.6875 0 "/></g></g></g><g fill="#ffffff" fill-opacity="1"><g transform="translate(233.995193, 230.002588)"><g><path d="M 8.8125 -12.796875 C 9.269531 -12.796875 9.65625 -12.757812 9.96875 -12.6875 L 9.703125 -9.484375 C 9.421875 -9.554688 9.082031 -9.59375 8.6875 -9.59375 C 7.59375 -9.59375 6.738281 -9.3125 6.125 -8.75 C 5.519531 -8.1875 5.21875 -7.398438 5.21875 -6.390625 L 5.21875 0 L 1.796875 0 L 1.796875 -12.5625 L 4.390625 -12.5625 L 4.890625 -10.4375 L 5.0625 -10.4375 C 5.457031 -11.144531 5.984375 -11.710938 6.640625 -12.140625 C 7.304688 -12.578125 8.03125 -12.796875 8.8125 -12.796875 Z M 8.8125 -12.796875 "/></g></g></g><g fill="#ffffff" fill-opacity="1"><g transform="translate(244.43598, 230.002588)"><g/></g></g><g fill="#ffffff" fill-opacity="1"><g transform="translate(250.40856, 230.002588)"><g><path d="M 8.734375 -9.984375 L 5.765625 -9.984375 L 5.765625 0 L 2.34375 0 L 2.34375 -9.984375 L 0.453125 -9.984375 L 0.453125 -11.640625 L 2.34375 -12.5625 L 2.34375 -13.484375 C 2.34375 -14.910156 2.691406 -15.953125 3.390625 -16.609375 C 4.097656 -17.265625 5.226562 -17.59375 6.78125 -17.59375 C 7.96875 -17.59375 9.019531 -17.421875 9.9375 -17.078125 L 9.0625 -14.5625 C 8.375 -14.769531 7.738281 -14.875 7.15625 -14.875 C 6.664062 -14.875 6.3125 -14.726562 6.09375 -14.4375 C 5.875 -14.15625 5.765625 -13.789062 5.765625 -13.34375 L 5.765625 -12.5625 L 8.734375 -12.5625 Z M 8.734375 -9.984375 "/></g></g></g><g fill="#ffffff" fill-opacity="1"><g transform="translate(259.311296, 230.002588)"><g><path d="M 1.65625 -15.796875 C 1.65625 -16.910156 2.273438 -17.46875 3.515625 -17.46875 C 4.753906 -17.46875 5.375 -16.910156 5.375 -15.796875 C 5.375 -15.265625 5.21875 -14.847656 4.90625 -14.546875 C 4.601562 -14.253906 4.140625 -14.109375 3.515625 -14.109375 C 2.273438 -14.109375 1.65625 -14.671875 1.65625 -15.796875 Z M 5.21875 0 L 1.796875 0 L 1.796875 -12.5625 L 5.21875 -12.5625 Z M 5.21875 0 "/></g></g></g><g fill="#ffffff" fill-opacity="1"><g transform="translate(266.327954, 230.002588)"><g><path d="M 13.390625 0 L 9.96875 0 L 9.96875 -7.328125 C 9.96875 -8.234375 9.804688 -8.910156 9.484375 -9.359375 C 9.160156 -9.816406 8.644531 -10.046875 7.9375 -10.046875 C 6.976562 -10.046875 6.285156 -9.722656 5.859375 -9.078125 C 5.429688 -8.441406 5.21875 -7.382812 5.21875 -5.90625 L 5.21875 0 L 1.796875 0 L 1.796875 -12.5625 L 4.40625 -12.5625 L 4.875 -10.953125 L 5.0625 -10.953125 C 5.445312 -11.554688 5.972656 -12.015625 6.640625 -12.328125 C 7.304688 -12.640625 8.066406 -12.796875 8.921875 -12.796875 C 10.390625 -12.796875 11.5 -12.398438 12.25 -11.609375 C 13.007812 -10.816406 13.390625 -9.675781 13.390625 -8.1875 Z M 13.390625 0 "/></g></g></g><g fill="#ffffff" fill-opacity="1"><g transform="translate(281.43903, 230.002588)"><g><path d="M 9.765625 0 L 9.109375 -1.703125 L 9.015625 -1.703125 C 8.441406 -0.984375 7.847656 -0.484375 7.234375 -0.203125 C 6.628906 0.078125 5.835938 0.21875 4.859375 0.21875 C 3.648438 0.21875 2.695312 -0.125 2 -0.8125 C 1.3125 -1.5 0.96875 -2.476562 0.96875 -3.75 C 0.96875 -5.082031 1.429688 -6.0625 2.359375 -6.6875 C 3.296875 -7.320312 4.703125 -7.675781 6.578125 -7.75 L 8.765625 -7.8125 L 8.765625 -8.359375 C 8.765625 -9.640625 8.113281 -10.28125 6.8125 -10.28125 C 5.800781 -10.28125 4.617188 -9.972656 3.265625 -9.359375 L 2.140625 -11.6875 C 3.578125 -12.4375 5.175781 -12.8125 6.9375 -12.8125 C 8.625 -12.8125 9.914062 -12.441406 10.8125 -11.703125 C 11.707031 -10.972656 12.15625 -9.859375 12.15625 -8.359375 L 12.15625 0 Z M 8.765625 -5.8125 L 7.4375 -5.765625 C 6.4375 -5.742188 5.691406 -5.566406 5.203125 -5.234375 C 4.722656 -4.898438 4.484375 -4.398438 4.484375 -3.734375 C 4.484375 -2.765625 5.035156 -2.28125 6.140625 -2.28125 C 6.929688 -2.28125 7.566406 -2.507812 8.046875 -2.96875 C 8.523438 -3.425781 8.765625 -4.03125 8.765625 -4.78125 Z M 8.765625 -5.8125 "/></g></g></g><g fill="#ffffff" fill-opacity="1"><g transform="translate(295.3264, 230.002588)"><g><path d="M 13.390625 0 L 9.96875 0 L 9.96875 -7.328125 C 9.96875 -8.234375 9.804688 -8.910156 9.484375 -9.359375 C 9.160156 -9.816406 8.644531 -10.046875 7.9375 -10.046875 C 6.976562 -10.046875 6.285156 -9.722656 5.859375 -9.078125 C 5.429688 -8.441406 5.21875 -7.382812 5.21875 -5.90625 L 5.21875 0 L 1.796875 0 L 1.796875 -12.5625 L 4.40625 -12.5625 L 4.875 -10.953125 L 5.0625 -10.953125 C 5.445312 -11.554688 5.972656 -12.015625 6.640625 -12.328125 C 7.304688 -12.640625 8.066406 -12.796875 8.921875 -12.796875 C 10.390625 -12.796875 11.5 -12.398438 12.25 -11.609375 C 13.007812 -10.816406 13.390625 -9.675781 13.390625 -8.1875 Z M 13.390625 0 "/></g></g></g><g fill="#ffffff" fill-opacity="1"><g transform="translate(310.437476, 230.002588)"><g><path d="M 6.890625 0.21875 C 2.984375 0.21875 1.03125 -1.921875 1.03125 -6.203125 C 1.03125 -8.335938 1.5625 -9.96875 2.625 -11.09375 C 3.6875 -12.226562 5.210938 -12.796875 7.203125 -12.796875 C 8.648438 -12.796875 9.953125 -12.507812 11.109375 -11.9375 L 10.09375 -9.28125 C 9.550781 -9.5 9.046875 -9.675781 8.578125 -9.8125 C 8.117188 -9.957031 7.660156 -10.03125 7.203125 -10.03125 C 5.421875 -10.03125 4.53125 -8.765625 4.53125 -6.234375 C 4.53125 -3.773438 5.421875 -2.546875 7.203125 -2.546875 C 7.859375 -2.546875 8.46875 -2.632812 9.03125 -2.8125 C 9.59375 -2.988281 10.15625 -3.265625 10.71875 -3.640625 L 10.71875 -0.703125 C 10.164062 -0.359375 9.601562 -0.117188 9.03125 0.015625 C 8.46875 0.148438 7.753906 0.21875 6.890625 0.21875 Z M 6.890625 0.21875 "/></g></g></g><g fill="#ffffff" fill-opacity="1"><g transform="translate(322.259142, 230.002588)"><g><path d="M 7 -10.359375 C 6.269531 -10.359375 5.695312 -10.125 5.28125 -9.65625 C 4.875 -9.195312 4.640625 -8.546875 4.578125 -7.703125 L 9.390625 -7.703125 C 9.367188 -8.546875 9.144531 -9.195312 8.71875 -9.65625 C 8.300781 -10.125 7.726562 -10.359375 7 -10.359375 Z M 7.484375 0.21875 C 5.460938 0.21875 3.878906 -0.335938 2.734375 -1.453125 C 1.597656 -2.566406 1.03125 -4.144531 1.03125 -6.1875 C 1.03125 -8.289062 1.554688 -9.914062 2.609375 -11.0625 C 3.660156 -12.21875 5.113281 -12.796875 6.96875 -12.796875 C 8.75 -12.796875 10.128906 -12.289062 11.109375 -11.28125 C 12.097656 -10.269531 12.59375 -8.875 12.59375 -7.09375 L 12.59375 -5.421875 L 4.5 -5.421875 C 4.539062 -4.453125 4.828125 -3.691406 5.359375 -3.140625 C 5.898438 -2.597656 6.660156 -2.328125 7.640625 -2.328125 C 8.390625 -2.328125 9.101562 -2.40625 9.78125 -2.5625 C 10.457031 -2.71875 11.160156 -2.96875 11.890625 -3.3125 L 11.890625 -0.65625 C 11.296875 -0.363281 10.65625 -0.144531 9.96875 0 C 9.289062 0.144531 8.460938 0.21875 7.484375 0.21875 Z M 7.484375 0.21875 "/></g></g></g><g fill="#ffffff" fill-opacity="1"><g transform="translate(335.843392, 230.002588)"><g><path d="M 10.5625 -3.734375 C 10.5625 -2.441406 10.113281 -1.457031 9.21875 -0.78125 C 8.320312 -0.113281 6.984375 0.21875 5.203125 0.21875 C 4.285156 0.21875 3.503906 0.15625 2.859375 0.03125 C 2.210938 -0.0820312 1.613281 -0.257812 1.0625 -0.5 L 1.0625 -3.328125 C 1.695312 -3.035156 2.410156 -2.785156 3.203125 -2.578125 C 4.003906 -2.378906 4.707031 -2.28125 5.3125 -2.28125 C 6.550781 -2.28125 7.171875 -2.640625 7.171875 -3.359375 C 7.171875 -3.628906 7.085938 -3.847656 6.921875 -4.015625 C 6.765625 -4.179688 6.484375 -4.367188 6.078125 -4.578125 C 5.671875 -4.796875 5.128906 -5.046875 4.453125 -5.328125 C 3.492188 -5.734375 2.785156 -6.109375 2.328125 -6.453125 C 1.878906 -6.796875 1.550781 -7.191406 1.34375 -7.640625 C 1.132812 -8.085938 1.03125 -8.632812 1.03125 -9.28125 C 1.03125 -10.40625 1.460938 -11.269531 2.328125 -11.875 C 3.191406 -12.488281 4.421875 -12.796875 6.015625 -12.796875 C 7.523438 -12.796875 8.992188 -12.460938 10.421875 -11.796875 L 9.390625 -9.328125 C 8.765625 -9.597656 8.175781 -9.816406 7.625 -9.984375 C 7.082031 -10.160156 6.523438 -10.25 5.953125 -10.25 C 4.941406 -10.25 4.4375 -9.976562 4.4375 -9.4375 C 4.4375 -9.125 4.597656 -8.851562 4.921875 -8.625 C 5.242188 -8.40625 5.957031 -8.078125 7.0625 -7.640625 C 8.039062 -7.242188 8.757812 -6.875 9.21875 -6.53125 C 9.675781 -6.1875 10.015625 -5.785156 10.234375 -5.328125 C 10.453125 -4.878906 10.5625 -4.347656 10.5625 -3.734375 Z M 10.5625 -3.734375 "/></g></g></g></svg>